<svg xmlns="http://www.w3.org/2000/svg"  viewBox="0 0 48 48" width="48px" height="48px" baseProfile="basic"><path fill="#fc9c9c" d="M24,31.071l-10.485,9.485c-0.626,0.626-1.409,2.002-2.222,2.126c-1.215,0.186-2.499-0.19-3.435-1.126	l-1.414-1.414c-1.563-1.563-1.563-4.094,0-5.657L16.929,24L6.444,13.515c-1.563-1.563-1.563-4.094,0-5.657l1.414-1.414	c1.563-1.563,4.094-1.563,5.657,0L24,16.929L34.485,6.444c1.563-1.563,4.094-1.563,5.657,0l1.414,1.414	c0.906,0.906,1.287,2.138,1.142,3.318c-0.105,0.855-1.486,1.682-2.142,2.339L30.071,24l10.485,10.485	c1.563,1.563,2.563,3.094,1,4.657l-1.414,1.414c-0.781,0.781-1.805,2.172-2.828,2.172c-1.024,0-2.047-0.391-2.828-1.172L24,31.071z"/><path fill="#324561" d="M37.313,42.729c-0.553,0-1-0.447-1-1s0.447-1,1-1c0.534,0,1.037-0.208,1.416-0.587l1.413-1.413	c0.779-0.78,0.779-2.049,0-2.829L28.95,24.707c-0.391-0.391-0.391-1.023,0-1.414l11.192-11.192c0.317-0.317,0.514-0.722,0.569-1.169	c0.068-0.548,0.577-0.946,1.114-0.87c0.549,0.067,0.938,0.566,0.87,1.114c-0.11,0.895-0.504,1.703-1.14,2.339L31.071,24	l10.485,10.485c1.559,1.56,1.559,4.098,0,5.657l-1.414,1.414C39.386,42.312,38.381,42.729,37.313,42.729z"/><path fill="#324561" d="M11.142,42.694c-0.486,0-0.912-0.354-0.987-0.85c-0.083-0.546,0.292-1.056,0.838-1.139	c0.421-0.064,0.804-0.259,1.108-0.563l10.776-10.776c0.391-0.391,1.023-0.391,1.414,0s0.391,1.023,0,1.414L13.515,41.557	c-0.608,0.608-1.376,0.998-2.222,1.126C11.242,42.69,11.191,42.694,11.142,42.694z"/></svg>